<?xml version="1.0" encoding="UTF-8" standalone="no"?>
<!-- Created with Inkscape (http://www.inkscape.org/) -->

<svg
   width="60mm"
   height="50mm"
   viewBox="0 0 60 50"
   version="1.1"
   id="svg1"
   inkscape:version="1.4.2 (f4327f4, 2025-05-13)"
   sodipodi:docname="logo-lagencesauvage-original.svg"
   xmlns:inkscape="http://www.inkscape.org/namespaces/inkscape"
   xmlns:sodipodi="http://sodipodi.sourceforge.net/DTD/sodipodi-0.dtd"
   xmlns="http://www.w3.org/2000/svg"
   xmlns:svg="http://www.w3.org/2000/svg">
  <sodipodi:namedview
     id="namedview1"
     pagecolor="#ffffff"
     bordercolor="#000000"
     borderopacity="0.25"
     inkscape:showpageshadow="2"
     inkscape:pageopacity="0.0"
     inkscape:pagecheckerboard="0"
     inkscape:deskcolor="#d1d1d1"
     inkscape:document-units="mm"
     inkscape:zoom="2.9683221"
     inkscape:cx="132.06114"
     inkscape:cy="27.456589"
     inkscape:window-width="1920"
     inkscape:window-height="1051"
     inkscape:window-x="-9"
     inkscape:window-y="-9"
     inkscape:window-maximized="1"
     inkscape:current-layer="text6" />
  <defs
     id="defs1">
    <rect
       x="254.68935"
       y="55.250069"
       width="257.38446"
       height="119.93308"
       id="rect1" />
    <clipPath
       clipPathUnits="userSpaceOnUse"
       id="clipPath10">
      <rect
         style="fill:#224f3c;fill-opacity:0.894118;stroke-width:0.999999"
         id="rect11"
         width="216.30165"
         height="141.97774"
         x="272.521"
         y="32.874039" />
    </clipPath>
    <rect
       x="254.68935"
       y="55.250069"
       width="257.38446"
       height="119.93308"
       id="rect6" />
    <clipPath
       clipPathUnits="userSpaceOnUse"
       id="clipPath9">
      <rect
         style="fill:#224f3c;fill-opacity:0.894118;stroke-width:0.999999"
         id="rect10"
         width="216.30165"
         height="141.97774"
         x="273.80637"
         y="31.732651" />
    </clipPath>
  </defs>
  <g
     inkscape:label="Calque 1"
     inkscape:groupmode="layer"
     id="layer1">
    <g
       id="text1"
       clip-path="url(#clipPath10)"
       style="font-size:40px;font-family:Anton;-inkscape-font-specification:'Anton, Normal';text-align:center;white-space:pre;fill:#0000ff;fill-opacity:0.893528"
       transform="matrix(0.37080975,0,0,0.37080975,-112.20586,-13.103613)"
       aria-label="L'AGENCE&#10;SAUVAGE">
      <path
         style="fill:#224f3c;fill-opacity:0.894118"
         d="m 317.36621,91.505271 v -34.375 h 6.875 v 28.515625 h 7.07031 v 5.859375 z m 17.12891,-21.953125 -1.95313,-12.421875 h 6.875 l -1.48437,12.421875 z m 6.38672,21.953125 3.32031,-34.375 h 11.66015 l 3.26172,34.375 h -6.5039 l -0.48828,-5.546875 h -4.14063 l -0.42969,5.546875 z m 7.59765,-11.035156 h 3.125 l -1.5039,-17.480469 h -0.3125 z m 19.84375,11.347656 q -7.36328,0 -7.36328,-10.546875 V 66.446677 q 0,-9.628906 8.4375,-9.628906 3.47656,0 5.33203,1.40625 1.85547,1.386719 2.5586,4.0625 0.70312,2.675781 0.70312,6.523437 h -6.71875 v -3.046875 q 0,-1.113281 -0.3125,-1.855468 -0.29297,-0.761719 -1.25,-0.761719 -1.19141,0 -1.58203,0.800781 -0.37109,0.800781 -0.37109,1.757813 v 16.660156 q 0,1.386719 0.35156,2.265625 0.37109,0.859375 1.42578,0.859375 1.09375,0 1.44531,-0.859375 0.3711,-0.878906 0.3711,-2.304688 V 77.42324 h -1.83594 v -5.9375 h 8.39844 v 20.019531 h -2.75391 l -1.17188,-2.890625 q -1.79687,3.203125 -5.66406,3.203125 z m 12.30469,-0.3125 v -34.375 h 13.75 v 6.640625 h -6.75781 v 6.699219 h 6.48437 v 6.464843 h -6.48437 v 7.871094 h 7.20703 v 6.699219 z m 16.46484,0 v -34.375 h 7.07032 l 3.16406,16.464844 V 57.130271 h 6.64062 v 34.375 h -6.71875 l -3.4375,-17.1875 v 17.1875 z m 27.92969,0.3125 q -3.73047,0 -6.01562,-2.324219 -2.26563,-2.324219 -2.26563,-6.503906 V 67.130271 q 0,-5 1.97266,-7.65625 1.99218,-2.65625 6.46484,-2.65625 2.44141,0 4.33594,0.898437 1.91406,0.898438 3.00781,2.695313 1.09375,1.777344 1.09375,4.492187 v 5.9375 h -6.83594 v -5.078125 q 0,-1.542968 -0.39062,-2.070312 -0.39063,-0.546875 -1.21094,-0.546875 -0.95703,0 -1.28906,0.703125 -0.33203,0.683594 -0.33203,1.835937 V 82.89199 q 0,1.425781 0.41015,2.011718 0.42969,0.585938 1.21094,0.585938 0.87891,0 1.23047,-0.722656 0.37109,-0.722657 0.37109,-1.875 v -6.191407 h 6.91407 v 6.503907 q 0,4.53125 -2.28516,6.582031 -2.28516,2.03125 -6.38672,2.03125 z m 10.95703,-0.3125 v -34.375 h 13.75 v 6.640625 h -6.75781 v 6.699219 h 6.48437 v 6.464843 h -6.48437 v 7.871094 h 7.20703 v 6.699219 z"
         id="path4" />
      <path
         style="fill:#c96839;fill-opacity:0.894118"
         d="m 328.0498,141.81777 q -4.70703,0 -6.79687,-2.34375 -2.07031,-2.34375 -2.07031,-7.46094 v -3.35937 h 6.79687 v 4.29687 q 0,1.19141 0.35156,1.875 0.3711,0.66407 1.26954,0.66407 0.9375,0 1.28906,-0.54688 0.37109,-0.54687 0.37109,-1.79687 0,-1.58204 -0.3125,-2.63672 -0.3125,-1.07422 -1.09375,-2.03125 -0.76172,-0.97657 -2.1289,-2.26563 l -3.08594,-2.92969 q -3.45703,-3.26171 -3.45703,-7.46093 0,-4.39453 2.03125,-6.69922 2.05078,-2.30469 5.91797,-2.30469 4.72656,0 6.69921,2.51953 1.99219,2.51953 1.99219,7.65625 h -6.99219 v -2.36328 q 0,-0.70312 -0.41015,-1.09375 -0.39063,-0.39062 -1.07422,-0.39062 -0.82031,0 -1.21094,0.46875 -0.37109,0.44921 -0.37109,1.17187 0,0.72266 0.39062,1.5625 0.39063,0.83984 1.54297,1.93359 l 3.96485,3.8086 q 1.1914,1.13281 2.1875,2.40234 0.99609,1.25 1.60156,2.92969 0.60547,1.66016 0.60547,4.0625 0,4.84375 -1.79688,7.59766 -1.77734,2.73437 -6.21094,2.73437 z m 9.35547,-0.3125 3.32032,-34.375 h 11.66015 l 3.26172,34.375 h -6.50391 l -0.48828,-5.54687 h -4.14062 l -0.42969,5.54687 z m 7.59766,-11.03516 h 3.125 l -1.50391,-17.48046 h -0.3125 z m 20.70312,11.34766 q -4.29687,0 -6.32812,-2.40234 -2.03125,-2.42188 -2.03125,-7.10938 v -25.17578 h 6.67969 v 24.90234 q 0,0.85938 0.0976,1.66016 0.0977,0.78125 0.44922,1.28906 0.35156,0.50782 1.13281,0.50782 0.80079,0 1.15235,-0.48829 0.35156,-0.50781 0.42969,-1.30859 0.0976,-0.80078 0.0976,-1.66016 v -24.90234 h 6.67969 v 25.17578 q 0,4.6875 -2.03125,7.10938 -2.03125,2.40234 -6.32813,2.40234 z m 14.16016,-0.3125 -4.23828,-34.39453 h 6.54297 l 2.51953,23.39844 2.24609,-23.39844 h 6.54297 l -4.23828,34.39453 z m 13.84766,0 3.32031,-34.375 h 11.66016 l 3.26171,34.375 h -6.5039 l -0.48828,-5.54687 h -4.14063 l -0.42969,5.54687 z m 7.59765,-11.03516 h 3.125 l -1.5039,-17.48046 h -0.3125 z m 19.84375,11.34766 q -7.36328,0 -7.36328,-10.54687 v -14.82422 q 0,-9.62891 8.4375,-9.62891 3.47656,0 5.33203,1.40625 1.85547,1.38672 2.5586,4.0625 0.70312,2.67578 0.70312,6.52344 h -6.71875 v -3.04688 q 0,-1.11328 -0.3125,-1.85547 -0.29297,-0.76171 -1.25,-0.76171 -1.1914,0 -1.58203,0.80078 -0.37109,0.80078 -0.37109,1.75781 v 16.66016 q 0,1.38671 0.35156,2.26562 0.37109,0.85938 1.42578,0.85938 1.09375,0 1.44531,-0.85938 0.3711,-0.87891 0.3711,-2.30469 v -4.90234 h -1.83594 v -5.9375 h 8.39844 v 20.01953 h -2.75391 l -1.17187,-2.89062 q -1.79688,3.20312 -5.66407,3.20312 z m 12.30469,-0.3125 v -34.375 h 13.75 v 6.64063 h -6.75781 v 6.69921 h 6.48437 v 6.46485 h -6.48437 v 7.87109 h 7.20703 v 6.69922 z"
         id="path5" />
    </g>
    <g
       id="text6"
       clip-path="url(#clipPath9)"
       style="font-size:40px;font-family:Anton;-inkscape-font-specification:'Anton, Normal';text-align:center;white-space:pre;fill:#0000ff;fill-opacity:0.893528"
       transform="matrix(0.37080975,0,0,0.37080975,-112.68249,-12.680375)"
       aria-label="L'AGENCE&#10;SAUVAGE">
      <path
         style="fill:#c96839;fill-opacity:0.894118"
         d="m 317.36621,91.505271 v -34.375 h 6.875 v 28.515625 h 7.07031 v 5.859375 z m 17.12891,-21.953125 -1.95313,-12.421875 h 6.875 l -1.48437,12.421875 z m 6.38672,21.953125 3.32031,-34.375 h 11.66015 l 3.26172,34.375 h -6.5039 l -0.48828,-5.546875 h -4.14063 l -0.42969,5.546875 z m 7.59765,-11.035156 h 3.125 l -1.5039,-17.480469 h -0.3125 z m 19.84375,11.347656 q -7.36328,0 -7.36328,-10.546875 V 66.446677 q 0,-9.628906 8.4375,-9.628906 3.47656,0 5.33203,1.40625 1.85547,1.386719 2.5586,4.0625 0.70312,2.675781 0.70312,6.523437 h -6.71875 v -3.046875 q 0,-1.113281 -0.3125,-1.855468 -0.29297,-0.761719 -1.25,-0.761719 -1.19141,0 -1.58203,0.800781 -0.37109,0.800781 -0.37109,1.757813 v 16.660156 q 0,1.386719 0.35156,2.265625 0.37109,0.859375 1.42578,0.859375 1.09375,0 1.44531,-0.859375 0.3711,-0.878906 0.3711,-2.304688 V 77.42324 h -1.83594 v -5.9375 h 8.39844 v 20.019531 h -2.75391 l -1.17188,-2.890625 q -1.79687,3.203125 -5.66406,3.203125 z m 12.30469,-0.3125 v -34.375 h 13.75 v 6.640625 h -6.75781 v 6.699219 h 6.48437 v 6.464843 h -6.48437 v 7.871094 h 7.20703 v 6.699219 z m 16.46484,0 v -34.375 h 7.07032 l 3.16406,16.464844 V 57.130271 h 6.64062 v 34.375 h -6.71875 l -3.4375,-17.1875 v 17.1875 z m 27.92969,0.3125 q -3.73047,0 -6.01562,-2.324219 -2.26563,-2.324219 -2.26563,-6.503906 V 67.130271 q 0,-5 1.97266,-7.65625 1.99218,-2.65625 6.46484,-2.65625 2.44141,0 4.33594,0.898437 1.91406,0.898438 3.00781,2.695313 1.09375,1.777344 1.09375,4.492187 v 5.9375 h -6.83594 v -5.078125 q 0,-1.542968 -0.39062,-2.070312 -0.39063,-0.546875 -1.21094,-0.546875 -0.95703,0 -1.28906,0.703125 -0.33203,0.683594 -0.33203,1.835937 V 82.89199 q 0,1.425781 0.41015,2.011718 0.42969,0.585938 1.21094,0.585938 0.87891,0 1.23047,-0.722656 0.37109,-0.722657 0.37109,-1.875 v -6.191407 h 6.91407 v 6.503907 q 0,4.53125 -2.28516,6.582031 -2.28516,2.03125 -6.38672,2.03125 z m 10.95703,-0.3125 v -34.375 h 13.75 v 6.640625 h -6.75781 v 6.699219 h 6.48437 v 6.464843 h -6.48437 v 7.871094 h 7.20703 v 6.699219 z"
         id="path2" />
      <path
         style="fill:#224f3c;fill-opacity:0.894118"
         d="m 328.0498,141.81777 q -4.70703,0 -6.79687,-2.34375 -2.07031,-2.34375 -2.07031,-7.46094 v -3.35937 h 6.79687 v 4.29687 q 0,1.19141 0.35156,1.875 0.3711,0.66407 1.26954,0.66407 0.9375,0 1.28906,-0.54688 0.37109,-0.54687 0.37109,-1.79687 0,-1.58204 -0.3125,-2.63672 -0.3125,-1.07422 -1.09375,-2.03125 -0.76172,-0.97657 -2.1289,-2.26563 l -3.08594,-2.92969 q -3.45703,-3.26171 -3.45703,-7.46093 0,-4.39453 2.03125,-6.69922 2.05078,-2.30469 5.91797,-2.30469 4.72656,0 6.69921,2.51953 1.99219,2.51953 1.99219,7.65625 h -6.99219 v -2.36328 q 0,-0.70312 -0.41015,-1.09375 -0.39063,-0.39062 -1.07422,-0.39062 -0.82031,0 -1.21094,0.46875 -0.37109,0.44921 -0.37109,1.17187 0,0.72266 0.39062,1.5625 0.39063,0.83984 1.54297,1.93359 l 3.96485,3.8086 q 1.1914,1.13281 2.1875,2.40234 0.99609,1.25 1.60156,2.92969 0.60547,1.66016 0.60547,4.0625 0,4.84375 -1.79688,7.59766 -1.77734,2.73437 -6.21094,2.73437 z m 9.35547,-0.3125 3.32032,-34.375 h 11.66015 l 3.26172,34.375 h -6.50391 l -0.48828,-5.54687 h -4.14062 l -0.42969,5.54687 z m 7.59766,-11.03516 h 3.125 l -1.50391,-17.48046 h -0.3125 z m 20.70312,11.34766 q -4.29687,0 -6.32812,-2.40234 -2.03125,-2.42188 -2.03125,-7.10938 v -25.17578 h 6.67969 v 24.90234 q 0,0.85938 0.0976,1.66016 0.0977,0.78125 0.44922,1.28906 0.35156,0.50782 1.13281,0.50782 0.80079,0 1.15235,-0.48829 0.35156,-0.50781 0.42969,-1.30859 0.0976,-0.80078 0.0976,-1.66016 v -24.90234 h 6.67969 v 25.17578 q 0,4.6875 -2.03125,7.10938 -2.03125,2.40234 -6.32813,2.40234 z m 14.16016,-0.3125 -4.23828,-34.39453 h 6.54297 l 2.51953,23.39844 2.24609,-23.39844 h 6.54297 l -4.23828,34.39453 z m 13.84766,0 3.32031,-34.375 h 11.66016 l 3.26171,34.375 h -6.5039 l -0.48828,-5.54687 h -4.14063 l -0.42969,5.54687 z m 7.59765,-11.03516 h 3.125 l -1.5039,-17.48046 h -0.3125 z m 19.84375,11.34766 q -7.36328,0 -7.36328,-10.54687 v -14.82422 q 0,-9.62891 8.4375,-9.62891 3.47656,0 5.33203,1.40625 1.85547,1.38672 2.5586,4.0625 0.70312,2.67578 0.70312,6.52344 h -6.71875 v -3.04688 q 0,-1.11328 -0.3125,-1.85547 -0.29297,-0.76171 -1.25,-0.76171 -1.1914,0 -1.58203,0.80078 -0.37109,0.80078 -0.37109,1.75781 v 16.66016 q 0,1.38671 0.35156,2.26562 0.37109,0.85938 1.42578,0.85938 1.09375,0 1.44531,-0.85938 0.3711,-0.87891 0.3711,-2.30469 v -4.90234 h -1.83594 v -5.9375 h 8.39844 v 20.01953 h -2.75391 l -1.17187,-2.89062 q -1.79688,3.20312 -5.66407,3.20312 z m 12.30469,-0.3125 v -34.375 h 13.75 v 6.64063 h -6.75781 v 6.69921 h 6.48437 v 6.46485 h -6.48437 v 7.87109 h 7.20703 v 6.69922 z"
         id="path3" />
    </g>
  </g>
</svg>
